<?xml version="1.0" standalone="no"?>
<!DOCTYPE svg PUBLIC "-//W3C//DTD SVG 20010904//EN"
 "http://www.w3.org/TR/2001/REC-SVG-20010904/DTD/svg10.dtd">
<svg version="1.0" xmlns="http://www.w3.org/2000/svg"
 width="128.000000pt" height="128.000000pt" viewBox="0 0 128.000000 128.000000"
 preserveAspectRatio="xMidYMid meet">
<metadata>
Created by potrace 1.15, written by Peter Selinger 2001-2017
</metadata>
<g transform="translate(0.000000,128.000000) scale(0.100000,-0.100000)"
fill="#000000" stroke="none">
<path d="M5 1268 c-3 -7 -4 -294 -3 -638 l3 -625 635 0 635 0 0 635 0 635
-633 3 c-501 2 -634 0 -637 -10z m1235 -515 c0 -267 -2 -484 -4 -482 -74 89
-283 315 -292 317 -7 2 -58 -34 -114 -80 l-103 -83 -133 140 c-132 139 -133
140 -152 120 -10 -11 -103 -113 -206 -227 -104 -115 -190 -208 -192 -208 -2 0
-4 223 -4 495 l0 495 600 0 600 0 0 -487z m-650 -253 c68 -72 127 -130 133
-130 5 0 54 36 109 81 54 44 103 79 108 77 5 -2 74 -76 154 -166 l146 -163 0
-75 0 -74 -595 0 -595 0 0 65 0 66 203 224 c111 123 205 224 209 225 3 0 61
-58 128 -130z"/>
<path d="M876 1092 c-64 -44 -88 -121 -60 -191 44 -110 177 -130 259 -40 36
40 37 43 33 106 -4 58 -7 67 -41 100 -33 34 -42 37 -99 41 -50 2 -69 -1 -92
-16z m134 -37 c32 -17 60 -61 60 -95 0 -29 -26 -76 -52 -94 -12 -9 -40 -16
-61 -16 -56 0 -107 52 -107 108 0 85 84 136 160 97z"/>
</g>
</svg>
